<svg xmlns="http://www.w3.org/2000/svg" xmlns:xlink="http://www.w3.org/1999/xlink" aria-hidden="true" role="img" class="iconify iconify--logos" width="35.93" height="32" preserveAspectRatio="xMidYMid meet" viewBox="0 0 256 228"><path fill="#00D8FF" d="M210.483 73.824a171.49 171.49 0 0 0-8.24-2.597c.465-1.9.893-3.777 1.273-5.621c6.238-30.281 2.16-54.676-11.769-62.708c-13.355-7.7-35.196.329-57.254 19.526a171.23 171.23 0 0 0-6.375 5.848a155.866 155.866 0 0 0-4.241-3.917C100.759 3.829 77.587-4.822 63.673 3.233C49.33 11.558 45.248 35.623 51.756 66.607a170.974 170.974 0 0 0 1.892 8.48c-3.28.932-6.445 1.924-9.474 2.98C17.309 86.498 0 98.307 0 110.027c0 11.721 17.309 23.53 44.174 33.797a145.52 145.52 0 0 0 9.61 2.988a167.467 167.467 0 0 0-1.964 8.562c-6.508 30.984-2.426 55.049 11.917 63.374c13.914 8.055 37.086-.596 59.188-19.836a145.567 145.567 0 0 0 4.319-3.953a168.064 168.064 0 0 0 6.375 5.848c22.058 19.197 43.899 27.226 57.254 19.526c13.929-8.032 18.007-32.427 11.769-62.708a145.016 145.016 0 0 0-1.273-5.621c2.62-.84 5.162-1.707 7.613-2.61c26.865-10.267 44.174-22.076 44.174-33.797c0-11.72-17.309-23.529-44.174-33.796zM128.006 163.84c-19.781 0-35.84-16.059-35.84-35.84s16.059-35.84 35.84-35.84s35.84 16.059 35.84 35.84s-16.059 35.84-35.84 35.84z"></path></svg> 